<svg width="20" height="20" viewBox="0 0 20 20" fill="none" xmlns="http://www.w3.org/2000/svg">
<g clip-path="url(#clip0_4584_2189)">
<path d="M16.4418 9.99631V19.4138C16.4418 19.7421 16.1839 20 15.8556 20H4.13254C3.80426 20 3.54639 19.7421 3.54639 19.4138V10.9107C3.54639 10.6997 3.66358 10.5121 3.83946 10.4066L5.42204 9.49222C5.51586 9.43356 5.62137 9.41016 5.71512 9.41016H8.23562L9.99408 10.9107L11.7525 9.41016H15.8556C16.1839 9.41016 16.4418 9.66802 16.4418 9.99631Z" fill="#E63950"/>
<path d="M16.4426 9.99631V19.4138C16.4426 19.7421 16.1847 20 15.8564 20H9.99487V10.9107L11.7533 9.41016H15.8564C16.1847 9.41016 16.4426 9.66802 16.4426 9.99631Z" fill="#D0004F"/>
<path d="M10.3932 1.17275C10.2876 0.98514 10.1469 0.809333 9.99455 0.680301C9.71319 0.387224 9.36154 0.187971 8.97464 0.0825025C8.365 -0.0816206 7.73199 0.000440902 7.19269 0.316925C6.44241 0.750757 5.99698 1.55957 6.02038 2.42712C6.03211 2.54435 6.09072 4.28718 6.09072 4.28718C5.96177 4.21684 4.62534 3.38446 4.62534 3.38446C4.47294 3.31413 3.4179 2.51696 2.11664 3.27892C1.57734 3.59548 1.19048 4.09953 1.02631 4.69745C0.86223 5.30709 0.94433 5.94009 1.26078 6.4794C1.90554 7.60477 3.34752 7.97991 4.46121 7.33514L5.97037 6.4638L3.86795 6.32363C3.69116 6.42453 3.49191 6.47764 3.29031 6.47764C2.87129 6.47764 2.48322 6.25498 2.27771 5.89605C2.11402 5.61728 2.07506 5.31162 2.15806 5.00252C2.23993 4.70542 2.43625 4.45072 2.70986 4.29042C2.90107 4.17823 3.08309 4.12384 3.26569 4.12384C3.56909 4.12384 3.82035 4.2721 3.95489 4.35166L4.0293 4.39402C4.21304 4.50851 5.40481 5.24804 5.52844 5.31561L5.57252 5.33964L5.56256 5.34538L5.57878 5.34609L6.98554 6.1667L7.25908 4.36916L7.26584 4.34787L7.26233 4.24693C7.26233 4.24693 7.19879 2.42974 7.18621 2.30723C7.17991 1.95577 7.40543 1.5482 7.77924 1.33183C7.96184 1.2248 8.15418 1.17212 8.35679 1.17212C8.46097 1.17212 8.56628 1.18643 8.67046 1.21448C8.85878 1.26599 9.02192 1.35989 9.149 1.49267L9.23716 1.57567C9.27037 1.60314 9.32473 1.66441 9.37053 1.74624C9.65102 2.22021 9.56458 2.84907 9.17878 3.22229C9.11524 3.28009 9.03165 3.34308 8.95553 3.38657L8.89727 3.42022L8.74069 4.86423L9.53723 4.40433C9.70135 4.31055 9.85379 4.19332 9.99443 4.0644C10.7448 3.33761 10.9558 2.12232 10.3932 1.17275Z" fill="#FED843"/>
<path d="M8.2356 9.41016V15.8969C8.2356 16.1314 8.37627 16.3424 8.59901 16.4361C8.81003 16.53 9.06797 16.4831 9.23202 16.3072L9.99406 15.5569L10.7561 16.3072C10.9202 16.4831 11.1781 16.5299 11.3891 16.4361C11.6118 16.3424 11.7525 16.1314 11.7525 15.8969V9.41016H8.2356Z" fill="#FED843"/>
<path d="M19.4117 7.06562H18.8256V6.47946C18.8256 6.15548 18.5634 5.89331 18.2394 5.89331C17.9154 5.89331 17.6533 6.15548 17.6533 6.47946V7.06562H17.0671C16.7431 7.06562 16.481 7.32779 16.481 7.65177C16.481 7.97576 16.7431 8.23793 17.0671 8.23793H17.6533V8.82408C17.6533 9.14807 17.9154 9.41023 18.2394 9.41023C18.5634 9.41023 18.8256 9.14807 18.8256 8.82408V8.23793H19.4117C19.7357 8.23793 19.9979 7.97576 19.9979 7.65177C19.9979 7.32779 19.7357 7.06562 19.4117 7.06562Z" fill="#FFB64C"/>
<path d="M17.028 4.72089C17.3518 4.72089 17.6142 4.45846 17.6142 4.13474C17.6142 3.81101 17.3518 3.54858 17.028 3.54858C16.7043 3.54858 16.4419 3.81101 16.4419 4.13474C16.4419 4.45846 16.7043 4.72089 17.028 4.72089Z" fill="#FFB64C"/>
<path d="M14.6843 8.23798C15.008 8.23798 15.2705 7.97555 15.2705 7.65183C15.2705 7.3281 15.008 7.06567 14.6843 7.06567C14.3606 7.06567 14.0981 7.3281 14.0981 7.65183C14.0981 7.97555 14.3606 8.23798 14.6843 8.23798Z" fill="#FFB64C"/>
<path d="M9.99487 9.41016H11.7533V15.8969C11.7533 16.1314 11.6127 16.3424 11.3899 16.4361C11.1789 16.53 10.921 16.4831 10.7569 16.3072L9.99487 15.5569V9.41016Z" fill="#FFB64C"/>
<path d="M9.99487 4.06452V0.68042C10.1473 0.809413 10.2879 0.98522 10.3935 1.17283C10.9562 2.1224 10.7452 3.33773 9.99487 4.06452Z" fill="#FFB64C"/>
<path d="M15.0707 4.60369L13.3123 1.55569C13.1481 1.27434 12.7847 1.18055 12.5034 1.34467L9.99463 2.79834L9.65877 2.99208L2.99306 6.83807L0.323093 8.37856C0.041739 8.53096 -0.0911225 8.89438 0.0730005 9.17573L1.87054 12.2237C2.03466 12.5051 2.38635 12.5989 2.66771 12.4347L9.99463 8.20271L14.848 5.40086C15.1293 5.23682 15.2232 4.88512 15.0707 4.60369Z" fill="#FF641A"/>
<path d="M14.8482 5.40086L9.99487 8.20268V2.79834L12.5036 1.34467C12.785 1.18055 13.1484 1.27434 13.3125 1.55569L15.071 4.60365C15.2234 4.88512 15.1296 5.23678 14.8482 5.40086Z" fill="#E63950"/>
</g>
<defs>
<clipPath id="clip0_4584_2189">
<rect width="20" height="20" fill="white"/>
</clipPath>
</defs>
</svg>
